<svg xmlns="http://www.w3.org/2000/svg" viewBox="0 0 900 520" fill="none">
  <rect width="900" height="520" rx="36" fill="#FFF8EA"/>
  <rect x="54" y="54" width="792" height="412" rx="28" fill="#FCF3DC" stroke="#E0C98F" stroke-width="2"/>
  <path d="M190 364C250 252 324 196 450 196C576 196 650 252 710 364" stroke="#C38F19" stroke-width="16" stroke-linecap="round"/>
  <path d="M208 364H692" stroke="#6A5132" stroke-width="12" stroke-linecap="round"/>
  <rect x="96" y="148" width="224" height="132" rx="22" fill="#FFFDF7" stroke="#D3BE91" stroke-width="2"/>
  <rect x="580" y="148" width="224" height="132" rx="22" fill="#FFFDF7" stroke="#D3BE91" stroke-width="2"/>
  <rect x="344" y="76" width="212" height="96" rx="18" fill="#FFF4CF" stroke="#D1A33A" stroke-width="2"/>
  <text x="208" y="192" text-anchor="middle" font-family="'Noto Sans SC', sans-serif" font-size="24" fill="#5C4630">具体对局</text>
  <text x="208" y="228" text-anchor="middle" font-family="'Noto Sans SC', sans-serif" font-size="20" fill="#7A634D">环境 / 版本 / 套牌</text>
  <text x="208" y="258" text-anchor="middle" font-family="'Noto Sans SC', sans-serif" font-size="20" fill="#7A634D">换备 / 对局 / 复盘</text>
  <text x="692" y="192" text-anchor="middle" font-family="'Noto Sans SC', sans-serif" font-size="24" fill="#5C4630">一般理论</text>
  <text x="692" y="228" text-anchor="middle" font-family="'Noto Sans SC', sans-serif" font-size="20" fill="#7A634D">概率 / 统计 / 认知</text>
  <text x="692" y="258" text-anchor="middle" font-family="'Noto Sans SC', sans-serif" font-size="20" fill="#7A634D">表达 / 迁移 / 判断</text>
  <text x="450" y="120" text-anchor="middle" font-family="'Noto Serif SC', serif" font-size="32" fill="#5C4630">一般 TCG 理论</text>
  <text x="450" y="152" text-anchor="middle" font-family="'Noto Sans SC', sans-serif" font-size="18" fill="#7A634D">把卡牌经验整理成跨标题也成立的语言</text>
  <circle cx="450" cy="196" r="12" fill="#C38F19"/>
  <circle cx="320" cy="280" r="10" fill="#C38F19" fill-opacity=".72"/>
  <circle cx="580" cy="280" r="10" fill="#C38F19" fill-opacity=".72"/>
</svg>

